<?xml version="1.0" encoding="UTF-8"?>
<svg xmlns="http://www.w3.org/2000/svg" width="47" height="20" viewBox="0 0 47 20" fill="none">
  <path d="M41.8361 8.85151L39.7629 7.97458C38.1113 7.29947 37.0471 6.81925 37.0471 5.55256C37.0471 4.28587 38.2219 3.26974 40.4056 3.26974C41.691 3.26974 42.8934 3.72213 44.158 4.64778L45.9478 2.17009C44.5243 0.986917 42.4235 0.137819 40.1292 0.137819C36.515 0.137819 33.8061 2.50416 33.8061 5.77527C33.8061 8.42697 35.9898 9.86069 37.9455 10.7307L39.1755 11.2666C41.8914 12.4497 43.1214 12.9021 43.1214 14.3637C43.1214 15.6025 41.9743 16.6465 39.7629 16.6465C37.2406 16.6465 35.4508 15.1223 33.889 13.2084C31.7053 10.675 30.2196 9.42918 26.9785 8.50352C23.5095 7.54307 22.5558 6.8958 22.5558 5.5456C22.5558 4.30675 23.7306 3.26278 25.9143 3.26278C27.1997 3.26278 28.4021 3.71517 29.6598 4.64082L31.4496 2.16313C30.0261 0.979957 27.9253 0.130859 25.631 0.130859C22.0237 0.130859 19.3079 2.4972 19.3079 5.76831C19.3079 9.48486 22.694 10.668 25.5204 11.4893C28.4021 12.3036 29.7427 13.1248 31.7053 15.8322C33.2463 17.9758 36.0174 19.8619 39.68 19.8619C43.7088 19.8619 46.4799 17.774 46.4799 14.2802C46.4799 12.3105 45.471 10.3896 41.8361 8.84455M25.5204 16.6256C23.9794 16.6256 22.4107 15.6095 21.3258 14.8787C19.9851 14.0018 19.0038 13.6955 17.9673 13.6955C16.8201 13.6955 15.9218 14.0296 14.4982 14.9066C13.2681 15.6652 12.0381 16.57 9.65395 16.57C5.62513 16.57 3.33085 13.8069 3.33085 9.91637C3.33085 6.02583 6.01903 3.43677 9.57102 3.43677C11.6718 3.43677 13.0954 3.917 14.6364 5.21153L16.4815 2.55984C15.1962 1.49498 13.0401 0.144779 9.57102 0.144779C4.05646 0.144779 0 4.43203 0 9.92333C0 15.7278 3.94589 19.8689 9.65395 19.8689C11.5336 19.8689 13.3787 19.3052 15.0579 18.2334C15.977 17.6418 16.8478 16.9388 17.8291 16.9388C18.7481 16.9388 19.3079 17.2799 20.5449 18.0942C21.8579 18.9711 23.3989 19.8689 25.244 19.8689C27.2342 19.8689 29.024 19.0546 30.2541 17.955L28.4366 15.5886C27.483 16.3472 26.557 16.6326 25.5273 16.6326" fill="#00A4E0"></path>
</svg>
